<?xml version="1.0" encoding="UTF-8" standalone="no"?>
<!-- Generator: Adobe Illustrator 26.0.1, SVG Export Plug-In . SVG Version: 6.00 Build 0)  -->

<svg
   version="1.1"
   id="Capa_1"
   x="0px"
   y="0px"
   viewBox="0 0 23.4375 23.4375"
   xml:space="preserve"
   width="500"
   height="500"
   sodipodi:docname="facebook-white.svg"
   inkscape:version="1.2.2 (732a01da63, 2022-12-09)"
   xmlns:inkscape="http://www.inkscape.org/namespaces/inkscape"
   xmlns:sodipodi="http://sodipodi.sourceforge.net/DTD/sodipodi-0.dtd"
   xmlns="http://www.w3.org/2000/svg"
   xmlns:svg="http://www.w3.org/2000/svg"><defs
   id="defs141" /><sodipodi:namedview
   id="namedview139"
   pagecolor="#211e1e"
   bordercolor="#000000"
   borderopacity="0.25"
   inkscape:showpageshadow="2"
   inkscape:pageopacity="0"
   inkscape:pagecheckerboard="0"
   inkscape:deskcolor="#d1d1d1"
   showgrid="false"
   inkscape:zoom="0.4609375"
   inkscape:cx="-238.64407"
   inkscape:cy="256"
   inkscape:window-width="1920"
   inkscape:window-height="1080"
   inkscape:window-x="0"
   inkscape:window-y="0"
   inkscape:window-maximized="0"
   inkscape:current-layer="Capa_1" />
<g
   id="g136"
   transform="matrix(0.9765625,0,0,0.98249843,0,-0.07172239)"
   style="fill:#aaaaaa;fill-opacity:1">
	<path
   d="m 24,12.073 c 0,5.989 -4.394,10.954 -10.13,11.855 v -8.363 h 2.789 l 0.531,-3.46 H 13.87 V 9.86 c 0,-0.947 0.464,-1.869 1.95,-1.869 h 1.509 V 5.045 c 0,0 -1.37,-0.234 -2.679,-0.234 -2.734,0 -4.52,1.657 -4.52,4.656 v 2.637 H 7.091 v 3.46 h 3.039 v 8.363 C 4.395,23.025 0,18.061 0,12.073 c 0,-6.627 5.373,-12 12,-12 6.627,0 12,5.372 12,12 z"
   id="path134"
   style="fill:#aaaaaa;fill-opacity:1" />
</g>















</svg>
