<?xml version="1.0" encoding="UTF-8" standalone="no"?>
<!-- Generator: Adobe Illustrator 26.0.1, SVG Export Plug-In . SVG Version: 6.00 Build 0)  -->

<svg
   version="1.1"
   id="Capa_1"
   x="0px"
   y="0px"
   viewBox="0 0 23.4375 16.875"
   xml:space="preserve"
   width="500"
   height="360"
   sodipodi:docname="linkedin-white.svg"
   inkscape:version="1.2.2 (732a01da63, 2022-12-09)"
   xmlns:inkscape="http://www.inkscape.org/namespaces/inkscape"
   xmlns:sodipodi="http://sodipodi.sourceforge.net/DTD/sodipodi-0.dtd"
   xmlns="http://www.w3.org/2000/svg"
   xmlns:svg="http://www.w3.org/2000/svg"><defs
   id="defs300" /><sodipodi:namedview
   id="namedview298"
   pagecolor="#ffffff"
   bordercolor="#000000"
   borderopacity="0.25"
   inkscape:showpageshadow="2"
   inkscape:pageopacity="0.0"
   inkscape:pagecheckerboard="0"
   inkscape:deskcolor="#d1d1d1"
   showgrid="false"
   inkscape:zoom="0.4609375"
   inkscape:cx="225.62712"
   inkscape:cy="324.33898"
   inkscape:window-width="1920"
   inkscape:window-height="1027"
   inkscape:window-x="0"
   inkscape:window-y="25"
   inkscape:window-maximized="0"
   inkscape:current-layer="Capa_1" />
<g
   id="g295"
   transform="matrix(0.97655935,0,0,0.82574003,0,-1.471356)"
   style="fill:#e6e6e6;fill-opacity:1">
	<path
   id="Path_2525"
   d="m 23.002,21.584 h 0.227 l -0.435,-0.658 v 0 c 0.266,0 0.407,-0.169 0.409,-0.376 0,-0.008 0,-0.017 -10e-4,-0.025 0,-0.282 -0.17,-0.417 -0.519,-0.417 h -0.564 v 1.476 h 0.212 v -0.643 h 0.261 z m -0.425,-0.81 h -0.246 v -0.499 h 0.312 c 0.161,0 0.345,0.026 0.345,0.237 0,0.242 -0.186,0.262 -0.412,0.262"
   style="fill:#e6e6e6;fill-opacity:1" />
	<path
   id="Path_2520"
   d="m 17.291,19.073 h -3.007 v -4.709 c 0,-1.123 -0.02,-2.568 -1.564,-2.568 -1.566,0 -1.806,1.223 -1.806,2.487 v 4.79 H 7.908 V 9.389 h 2.887 v 1.323 h 0.04 c 0.589,-1.006 1.683,-1.607 2.848,-1.564 3.048,0 3.609,2.005 3.609,4.612 z M 4.515,8.065 C 3.551,8.065 2.77,7.284 2.77,6.32 c 0,-0.964 0.781,-1.745 1.745,-1.745 0.964,0 1.745,0.781 1.745,1.745 0,0.964 -0.781,1.745 -1.745,1.745 v 0 M 6.018,19.073 H 3.008 V 9.389 h 3.01 z M 18.79,1.783 H 1.497 C 0.68,1.774 0.01,2.429 0,3.246 V 20.61 c 0.01,0.818 0.68,1.473 1.497,1.464 H 18.79 c 0.819,0.01 1.492,-0.645 1.503,-1.464 V 3.245 C 20.281,2.426 19.608,1.771 18.79,1.782"
   style="fill:#e6e6e6;fill-opacity:1" />
	<path
   id="Path_2526"
   d="m 22.603,19.451 c -0.764,0.007 -1.378,0.633 -1.37,1.397 0.007,0.764 0.633,1.378 1.397,1.37 0.764,-0.007 1.378,-0.633 1.37,-1.397 -0.007,-0.754 -0.617,-1.363 -1.37,-1.37 h -0.027 m 0.032,2.608 c -0.67,0.011 -1.254,-0.522 -1.265,-1.192 -0.011,-0.67 0.523,-1.222 1.193,-1.233 0.67,-0.011 1.222,0.523 1.233,1.193 0,0.007 0,0.013 0,0.02 0.014,0.655 -0.506,1.198 -1.161,1.212 h -0.031"
   style="fill:#e6e6e6;fill-opacity:1" />
</g>















</svg>
