<?xml version="1.0" encoding="UTF-8" standalone="no"?>
<!-- Generator: Adobe Illustrator 26.0.1, SVG Export Plug-In . SVG Version: 6.00 Build 0)  -->

<svg
   version="1.1"
   id="Capa_1"
   x="0px"
   y="0px"
   viewBox="0 0 23.4375 23.4375"
   xml:space="preserve"
   width="500"
   height="500"
   sodipodi:docname="github.svg"
   inkscape:version="1.2.2 (732a01da63, 2022-12-09)"
   xmlns:inkscape="http://www.inkscape.org/namespaces/inkscape"
   xmlns:sodipodi="http://sodipodi.sourceforge.net/DTD/sodipodi-0.dtd"
   xmlns="http://www.w3.org/2000/svg"
   xmlns:svg="http://www.w3.org/2000/svg"><defs
   id="defs281" /><sodipodi:namedview
   id="namedview279"
   pagecolor="#211e1e"
   bordercolor="#000000"
   borderopacity="0.25"
   inkscape:showpageshadow="2"
   inkscape:pageopacity="0"
   inkscape:pagecheckerboard="0"
   inkscape:deskcolor="#d1d1d1"
   showgrid="false"
   showguides="false"
   inkscape:zoom="0.83746066"
   inkscape:cx="108.06478"
   inkscape:cy="174.33655"
   inkscape:window-width="1920"
   inkscape:window-height="1080"
   inkscape:window-x="0"
   inkscape:window-y="0"
   inkscape:window-maximized="0"
   inkscape:current-layer="Capa_1" />
<g
   id="g276"
   transform="matrix(0.97652181,0,0,1.0012503,0,-0.29637009)">
	<path
   style="clip-rule:evenodd;fill-rule:evenodd"
   d="m 12,0.296 c -6.627,0 -12,5.372 -12,12 0,5.302 3.438,9.8 8.206,11.387 0.6,0.111 0.82,-0.26 0.82,-0.577 C 9.026,22.82 9.015,21.875 9.01,20.872 5.672,21.598 4.967,19.456 4.967,19.456 4.421,18.069 3.635,17.7 3.635,17.7 2.546,16.955 3.717,16.971 3.717,16.971 c 1.205,0.085 1.839,1.237 1.839,1.237 1.07,1.834 2.807,1.304 3.492,0.997 C 9.156,18.429 9.467,17.9 9.81,17.6 7.145,17.297 4.343,16.268 4.343,11.67 4.343,10.36 4.812,9.289 5.58,8.449 5.455,8.146 5.044,6.926 5.696,5.273 c 0,0 1.008,-0.322 3.301,1.23 C 9.954,6.237 10.98,6.104 12,6.099 c 1.02,0.005 2.047,0.138 3.006,0.404 2.29,-1.553 3.297,-1.23 3.297,-1.23 0.653,1.653 0.242,2.873 0.118,3.176 0.769,0.84 1.235,1.911 1.235,3.221 0,4.609 -2.807,5.624 -5.479,5.921 0.43,0.372 0.814,1.103 0.814,2.222 0,1.606 -0.014,2.898 -0.014,3.293 0,0.319 0.216,0.694 0.824,0.576 4.766,-1.589 8.2,-6.085 8.2,-11.385 C 24,5.669 18.627,0.296 12,0.296 Z"
   id="path260" />
	<path
   d="m 4.545,17.526 c -0.026,0.06 -0.12,0.078 -0.206,0.037 -0.087,-0.039 -0.136,-0.121 -0.108,-0.18 0.026,-0.061 0.12,-0.078 0.207,-0.037 0.087,0.038 0.137,0.12 0.107,0.18 z"
   id="path262" />
	<path
   d="M 5.031,18.068 C 4.974,18.121 4.862,18.096 4.786,18.013 4.707,17.929 4.693,17.817 4.751,17.764 4.81,17.711 4.918,17.736 4.997,17.82 c 0.079,0.083 0.094,0.194 0.034,0.248 z"
   id="path264" />
	<path
   d="M 5.504,18.759 C 5.43,18.81 5.31,18.762 5.236,18.656 5.162,18.549 5.162,18.421 5.238,18.37 c 0.074,-0.051 0.193,-0.005 0.268,0.101 0.073,0.108 0.073,0.236 -0.002,0.288 z"
   id="path266" />
	<path
   d="M 6.152,19.427 C 6.086,19.5 5.946,19.48 5.844,19.381 5.739,19.284 5.71,19.147 5.776,19.074 c 0.067,-0.073 0.208,-0.052 0.311,0.046 0.104,0.097 0.135,0.235 0.065,0.307 z"
   id="path268" />
	<path
   d="M 7.047,19.814 C 7.018,19.908 6.883,19.951 6.747,19.911 6.611,19.87 6.522,19.76 6.55,19.665 6.578,19.57 6.714,19.526 6.851,19.569 c 0.135,0.04 0.224,0.15 0.196,0.245 z"
   id="path270" />
	<path
   d="m 8.029,19.886 c 0.003,0.099 -0.112,0.181 -0.255,0.183 -0.143,0.003 -0.26,-0.077 -0.261,-0.174 0,-0.1 0.113,-0.181 0.256,-0.184 0.143,-0.003 0.26,0.077 0.26,0.175 z"
   id="path272" />
	<path
   d="M 8.943,19.731 C 8.96,19.827 8.861,19.927 8.719,19.953 8.58,19.979 8.451,19.919 8.433,19.823 8.416,19.724 8.517,19.625 8.656,19.599 c 0.141,-0.025 0.269,0.033 0.287,0.132 z"
   id="path274" />
</g>















</svg>
