<?xml version="1.0" encoding="UTF-8" standalone="no"?>
<svg
   id="js"
   viewBox="0 0 24 24"
   width="512"
   height="512"
   version="1.1"
   sodipodi:docname="js.svg"
   inkscape:version="1.2.2 (732a01da63, 2022-12-09)"
   xmlns:inkscape="http://www.inkscape.org/namespaces/inkscape"
   xmlns:sodipodi="http://sodipodi.sourceforge.net/DTD/sodipodi-0.dtd"
   xmlns="http://www.w3.org/2000/svg"
   xmlns:svg="http://www.w3.org/2000/svg">
  <defs
     id="defs544" />
  <sodipodi:namedview
     id="namedview542"
     pagecolor="#ffffff"
     bordercolor="#000000"
     borderopacity="0.25"
     inkscape:showpageshadow="2"
     inkscape:pageopacity="0.0"
     inkscape:pagecheckerboard="0"
     inkscape:deskcolor="#d1d1d1"
     showgrid="false"
     inkscape:zoom="0.4609375"
     inkscape:cx="-198.50847"
     inkscape:cy="256"
     inkscape:window-width="1920"
     inkscape:window-height="1080"
     inkscape:window-x="0"
     inkscape:window-y="0"
     inkscape:window-maximized="0"
     inkscape:current-layer="js" />
  <path
     d="m 14.872748,15.406225 a 3.7261521,3.7261521 0 0 0 3.375687,2.078513 c 1.41703,0 2.322777,-0.708515 2.322777,-1.688602 0,-1.172766 -0.930021,-1.58847 -2.491182,-2.275744 L 17.224351,13.153238 C 14.755926,12.101844 13.115873,10.783429 13.115873,7.9948843 a 4.572729,4.572729 0 0 1 5.006638,-4.5196286 5.0551868,5.0551868 0 0 1 4.870093,2.7521335 L 20.328466,7.9372313 A 2.3273279,2.3273279 0 0 0 18.127062,6.4716524 1.4898539,1.4898539 0 0 0 16.488527,7.9372313 c 0,1.0271194 0.635691,1.442822 2.104305,2.0785147 l 0.855679,0.365636 C 22.355395,11.62849 24,12.899872 24,15.756689 c 0,3.081358 -2.419875,4.768444 -5.669637,4.768444 a 6.5738669,6.5738669 0 0 1 -6.23554,-3.498578 z M 2.7855111,15.709658 c 0.5370757,0.952778 1.0271193,1.759909 2.2014033,1.759909 1.1242178,0 1.83425,-0.439978 1.83425,-2.151337 V 3.6785555 H 10.242367 V 15.36071 A 4.64707,4.64707 0 0 1 5.1325621,20.519064 5.3100701,5.3100701 0 0 1 0,17.393709 Z"
     id="path539"
     style="stroke-width:1.51717" />
</svg>
