<?xml version="1.0" encoding="UTF-8" standalone="no"?>
<!-- Generator: Adobe Illustrator 26.0.1, SVG Export Plug-In . SVG Version: 6.00 Build 0)  -->

<svg
   version="1.1"
   id="Capa_1"
   x="0px"
   y="0px"
   viewBox="0 0 24 24"
   style="enable-background:new 0 0 24 24;"
   xml:space="preserve"
   width="512"
   height="512"
   sodipodi:docname="php.svg"
   inkscape:version="1.2.2 (732a01da63, 2022-12-09)"
   xmlns:inkscape="http://www.inkscape.org/namespaces/inkscape"
   xmlns:sodipodi="http://sodipodi.sourceforge.net/DTD/sodipodi-0.dtd"
   xmlns="http://www.w3.org/2000/svg"
   xmlns:svg="http://www.w3.org/2000/svg"><defs
   id="defs1109" /><sodipodi:namedview
   id="namedview1107"
   pagecolor="#ffffff"
   bordercolor="#000000"
   borderopacity="0.25"
   inkscape:showpageshadow="2"
   inkscape:pageopacity="0.0"
   inkscape:pagecheckerboard="0"
   inkscape:deskcolor="#d1d1d1"
   showgrid="false"
   inkscape:zoom="0.4609375"
   inkscape:cx="-236.47458"
   inkscape:cy="256"
   inkscape:window-width="1920"
   inkscape:window-height="1052"
   inkscape:window-x="0"
   inkscape:window-y="28"
   inkscape:window-maximized="0"
   inkscape:current-layer="Capa_1" />
<g
   id="g1104"
   transform="scale(1.0000256,1)"
   style="fill:#e51a2e;fill-opacity:1">
	<path
   d="M 1.899,8.507 H 5.458 C 6.503,8.516 7.26,8.817 7.73,9.41 8.199,10.003 8.354,10.813 8.195,11.84 8.133,12.309 7.996,12.77 7.783,13.221 7.579,13.673 7.296,14.08 6.933,14.443 6.49,14.903 6.017,15.196 5.512,15.32 5.007,15.444 4.485,15.506 3.945,15.506 H 2.351 L 1.846,18.03 H 0 L 1.899,8.507 v 0 m 1.554,1.514 -0.797,3.984 c 0.053,0.009 0.106,0.013 0.159,0.013 0.062,0 0.124,0 0.186,0 0.85,0.009 1.558,-0.075 2.125,-0.252 0.567,-0.186 0.947,-0.832 1.142,-1.939 0.159,-0.93 0,-1.465 -0.478,-1.607 -0.469,-0.142 -1.058,-0.208 -1.766,-0.199 -0.106,0.009 -0.208,0.013 -0.305,0.013 -0.088,0 -0.181,0 -0.279,0 l 0.013,-0.013"
   id="path1098"
   style="fill:#e51a2e;fill-opacity:1" />
	<path
   d="m 10.297,5.97 h 1.833 l -0.518,2.537 h 1.647 c 0.903,0.018 1.576,0.204 2.019,0.558 0.452,0.354 0.584,1.027 0.398,2.019 l -0.89,4.423 h -1.859 l 0.85,-4.223 c 0.088,-0.443 0.062,-0.757 -0.08,-0.943 -0.142,-0.186 -0.447,-0.279 -0.916,-0.279 l -1.474,-0.013 -1.089,5.458 H 8.385 L 10.297,5.97 v 0"
   id="path1100"
   style="fill:#e51a2e;fill-opacity:1" />
	<path
   d="m 17.644,8.507 h 3.559 c 1.045,0.009 1.802,0.31 2.271,0.903 0.469,0.593 0.624,1.403 0.465,2.43 -0.062,0.469 -0.199,0.93 -0.412,1.381 -0.204,0.452 -0.487,0.859 -0.85,1.222 -0.443,0.46 -0.916,0.753 -1.421,0.877 -0.505,0.124 -1.027,0.186 -1.567,0.186 h -1.594 l -0.505,2.523 h -1.846 l 1.9,-9.522 v 0 m 1.554,1.514 -0.797,3.984 c 0.053,0.009 0.106,0.013 0.159,0.013 0.062,0 0.124,0 0.186,0 0.85,0.009 1.558,-0.075 2.125,-0.252 0.567,-0.186 0.947,-0.832 1.142,-1.939 0.159,-0.93 0,-1.465 -0.478,-1.607 -0.469,-0.142 -1.058,-0.208 -1.766,-0.199 -0.106,0.009 -0.208,0.013 -0.305,0.013 -0.088,0 -0.181,0 -0.279,0 l 0.013,-0.013"
   id="path1102"
   style="fill:#e51a2e;fill-opacity:1" />
</g>















</svg>
