<?xml version="1.0" encoding="UTF-8" standalone="no"?>
<!-- Generator: Adobe Illustrator 26.0.1, SVG Export Plug-In . SVG Version: 6.00 Build 0)  -->

<svg
   version="1.1"
   id="Capa_1"
   x="0px"
   y="0px"
   viewBox="0 0 24 24"
   xml:space="preserve"
   width="512"
   height="512"
   sodipodi:docname="postgre.svg"
   inkscape:version="1.2.2 (732a01da63, 2022-12-09)"
   xmlns:inkscape="http://www.inkscape.org/namespaces/inkscape"
   xmlns:sodipodi="http://sodipodi.sourceforge.net/DTD/sodipodi-0.dtd"
   xmlns="http://www.w3.org/2000/svg"
   xmlns:svg="http://www.w3.org/2000/svg"><defs
   id="defs1239" /><sodipodi:namedview
   id="namedview1237"
   pagecolor="#ffffff"
   bordercolor="#000000"
   borderopacity="0.25"
   inkscape:showpageshadow="2"
   inkscape:pageopacity="0.0"
   inkscape:pagecheckerboard="0"
   inkscape:deskcolor="#d1d1d1"
   showgrid="false"
   inkscape:zoom="0.4609375"
   inkscape:cx="-245.15254"
   inkscape:cy="256"
   inkscape:window-width="1920"
   inkscape:window-height="1052"
   inkscape:window-x="0"
   inkscape:window-y="28"
   inkscape:window-maximized="0"
   inkscape:current-layer="Capa_1" />
<g
   id="g1234"
   transform="matrix(1.0358695,0,0,0.9999811,-0.43020839,4.537072e-4)"
   style="fill:#000000;fill-opacity:1">
	<path
   d="M 23.559,14.723 C 23.545,14.679 23.526,14.64 23.503,14.604 23.364,14.341 23.026,14.262 22.496,14.372 20.843,14.713 20.202,14.503 19.97,14.353 21.312,12.305 22.415,9.831 23.011,7.523 23.282,6.472 23.809,3.999 23.133,2.791 23.088,2.707 23.038,2.628 22.982,2.556 21.693,0.908 19.801,0.025 17.51,0 16.014,-0.015 14.739,0.346 14.394,0.479 14.226,0.448 14.054,0.42 13.878,0.397 13.467,0.322 13.03,0.277 12.567,0.269 11.385,0.25 10.363,0.533 9.517,1.11 8.659,0.79 4.728,-0.534 2.295,1.19 0.936,2.153 0.309,3.873 0.43,6.304 c 0.041,0.818 0.507,3.334 1.242,5.744 0.46,1.507 0.939,2.702 1.433,3.582 0.553,0.994 1.126,1.593 1.714,1.79 0.447,0.149 1.133,0.144 1.858,-0.728 0.801,-0.964 1.59,-1.826 1.945,-2.207 0.435,0.235 0.906,0.362 1.39,0.377 0,10e-4 0,0.003 0,0.004 -0.098,0.116 -0.179,0.218 -0.247,0.305 -0.339,0.43 -0.409,0.52 -1.5,0.744 -0.31,0.064 -1.134,0.234 -1.146,0.812 -0.003,0.122 0.033,0.231 0.092,0.327 0.227,0.423 0.921,0.61 1.015,0.633 1.335,0.334 2.504,0.092 3.371,-0.679 -0.017,2.231 0.078,4.417 0.345,5.087 0.223,0.554 0.763,1.905 2.47,1.905 0.25,0 0.526,-0.029 0.83,-0.094 1.782,-0.382 2.556,-1.17 2.855,-2.906 0.15,-0.871 0.402,-2.875 0.539,-4.101 0.017,-0.07 0.036,-0.121 0.057,-0.136 10e-4,0 0.07,-0.047 0.427,0.031 0.015,0.003 0.029,0.005 0.044,0.007 l 0.254,0.022 c 0.005,0 0.01,0.001 0.015,0.001 0.847,0.039 1.911,-0.143 2.531,-0.431 0.644,-0.299 1.806,-1.033 1.595,-1.67 z M 2.371,11.876 C 1.627,9.441 1.193,6.991 1.159,6.305 1.05,4.133 1.576,2.622 2.721,1.812 4.558,0.513 7.561,1.271 8.829,1.682 8.826,1.685 8.822,1.688 8.819,1.691 6.795,3.735 6.843,7.227 6.848,7.441 c 0,0.082 0.007,0.199 0.016,0.359 0.035,0.587 0.1,1.68 -0.073,2.918 -0.161,1.15 0.194,2.276 0.973,3.089 0.081,0.084 0.165,0.163 0.252,0.238 -0.347,0.371 -1.1,1.193 -1.903,2.158 -0.568,0.682 -0.96,0.552 -1.089,0.509 C 4.632,16.581 4.211,16.125 3.785,15.389 3.307,14.549 2.823,13.357 2.371,11.876 Z m 6.007,5.087 C 8.207,16.92 8.051,16.85 7.946,16.786 c 0.089,-0.039 0.237,-0.09 0.483,-0.141 1.283,-0.264 1.481,-0.451 1.914,-1 0.099,-0.126 0.212,-0.269 0.367,-0.443 0.034,-0.038 0.059,-0.082 0.074,-0.13 0.171,-0.151 0.272,-0.11 0.437,-0.042 0.156,0.065 0.308,0.26 0.369,0.475 0.029,0.102 0.062,0.294 -0.045,0.444 -0.904,1.268 -2.221,1.251 -3.167,1.014 z m 2.094,-3.987 -0.053,0.141 C 10.286,13.474 10.162,13.805 10.086,14.12 9.419,14.118 8.769,13.833 8.275,13.318 7.647,12.663 7.362,11.752 7.493,10.818 7.676,9.509 7.609,8.37 7.572,7.758 7.567,7.672 7.562,7.597 7.56,7.538 7.856,7.276 9.226,6.542 10.203,6.766 c 0.446,0.102 0.718,0.406 0.831,0.928 0.585,2.704 0.077,3.831 -0.33,4.736 -0.085,0.187 -0.164,0.363 -0.232,0.546 z m 7.364,4.572 c -0.017,0.177 -0.036,0.376 -0.062,0.596 l -0.146,0.438 c -0.012,0.035 -0.018,0.071 -0.018,0.108 -0.006,0.475 -0.054,0.649 -0.115,0.869 -0.063,0.229 -0.135,0.489 -0.179,1.057 -0.11,1.414 -0.878,2.227 -2.417,2.557 -1.516,0.325 -1.784,-0.497 -2.021,-1.222 -0.026,-0.08 -0.051,-0.156 -0.077,-0.227 -0.215,-0.586 -0.191,-1.412 -0.157,-2.555 0.017,-0.561 -0.025,-1.901 -0.33,-2.646 0.004,-0.293 0.011,-0.591 0.019,-0.892 10e-4,-0.039 -0.004,-0.077 -0.015,-0.113 -0.009,-0.069 -0.024,-0.138 -0.044,-0.208 -0.123,-0.428 -0.421,-0.787 -0.78,-0.935 -0.142,-0.059 -0.404,-0.167 -0.718,-0.087 0.067,-0.276 0.183,-0.587 0.309,-0.925 l 0.053,-0.142 c 0.059,-0.16 0.134,-0.326 0.213,-0.501 0.427,-0.948 1.011,-2.245 0.377,-5.177 C 11.491,6.445 10.697,5.909 9.495,6.033 8.773,6.109 8.114,6.4 7.785,6.566 7.715,6.602 7.65,6.637 7.589,6.67 7.681,5.564 8.028,3.496 9.325,2.188 9.422,2.09 9.523,1.998 9.628,1.912 9.68,1.902 9.73,1.881 9.773,1.848 c 0.752,-0.571 1.695,-0.851 2.802,-0.833 0.409,0.007 0.802,0.034 1.174,0.081 1.939,0.354 3.244,1.447 4.036,2.383 0.814,0.962 1.255,1.932 1.431,2.454 -1.323,-0.135 -2.223,0.127 -2.68,0.779 -0.993,1.419 0.543,4.173 1.281,5.496 0.135,0.243 0.252,0.452 0.289,0.541 0.24,0.583 0.551,0.971 0.779,1.255 0.07,0.087 0.137,0.171 0.189,0.245 -0.401,0.116 -1.121,0.383 -1.055,1.717 -0.012,0.156 -0.042,0.447 -0.083,0.815 -0.047,0.209 -0.071,0.461 -0.1,0.767 z m 0.89,-1.621 c -0.04,-0.832 0.269,-0.918 0.597,-1.01 0.046,-0.013 0.091,-0.026 0.135,-0.041 0.039,0.035 0.083,0.069 0.134,0.103 0.57,0.377 1.582,0.421 3.007,0.134 -0.202,0.177 -0.519,0.399 -0.953,0.601 -0.41,0.19 -1.096,0.333 -1.747,0.364 -0.72,0.034 -1.086,-0.081 -1.173,-0.151 z m 0.57,-9.271 c -0.006,0.351 -0.054,0.669 -0.105,1.002 -0.055,0.358 -0.112,0.727 -0.126,1.176 -0.014,0.437 0.04,0.891 0.093,1.33 0.107,0.887 0.216,1.8 -0.207,2.701 -0.066,-0.117 -0.129,-0.244 -0.188,-0.386 -0.053,-0.128 -0.167,-0.333 -0.325,-0.616 -0.616,-1.104 -2.057,-3.69 -1.319,-4.745 0.378,-0.542 1.34,-0.565 2.177,-0.462 z m 0.228,7.013 c -0.028,-0.035 -0.056,-0.071 -0.085,-0.107 -0.012,-0.015 -0.024,-0.03 -0.036,-0.045 0.726,-1.199 0.584,-2.386 0.458,-3.438 C 19.809,9.647 19.76,9.239 19.773,8.856 19.786,8.45 19.84,8.102 19.891,7.765 19.955,7.35 20.02,6.921 20.002,6.414 20.015,6.361 20.021,6.298 20.014,6.224 19.968,5.739 19.414,4.286 18.285,2.971 17.677,2.264 16.796,1.474 15.597,0.932 16.122,0.826 16.83,0.729 17.621,0.746 c 2.052,0.046 3.675,0.814 4.824,2.282 0.024,0.03 0.046,0.064 0.067,0.1 0.722,1.357 -0.277,6.276 -2.988,10.541 z"
   id="path1228"
   style="fill:#000000;fill-opacity:1" />
	<path
   d="M 10.096,7.135 C 9.838,7.099 9.605,7.132 9.486,7.222 9.42,7.272 9.4,7.33 9.394,7.37 9.379,7.477 9.454,7.594 9.5,7.655 c 0.129,0.172 0.319,0.29 0.506,0.316 0.027,0.004 0.054,0.006 0.081,0.006 0.312,0 0.596,-0.243 0.621,-0.423 0.031,-0.226 -0.295,-0.375 -0.612,-0.419 z"
   id="path1230"
   style="fill:#000000;fill-opacity:1" />
	<path
   d="m 18.003,6.957 c -0.297,0.041 -0.585,0.175 -0.561,0.352 0.019,0.137 0.267,0.372 0.561,0.372 0.025,0 0.05,-0.002 0.075,-0.005 0.196,-0.027 0.34,-0.152 0.408,-0.223 0.104,-0.109 0.164,-0.231 0.153,-0.31 v 0 C 18.614,6.966 18.3,6.915 18.003,6.957 Z"
   id="path1232"
   style="fill:#000000;fill-opacity:1" />
</g>















</svg>
