<?xml version="1.0" encoding="UTF-8" standalone="no"?>
<!-- Generator: Adobe Illustrator 26.0.1, SVG Export Plug-In . SVG Version: 6.00 Build 0)  -->

<svg
   version="1.1"
   id="Capa_1"
   x="0px"
   y="0px"
   viewBox="0 0 23.4375 23.4375"
   xml:space="preserve"
   width="500"
   height="500"
   sodipodi:docname="discord.svg"
   inkscape:version="1.2.2 (732a01da63, 2022-12-09)"
   xmlns:inkscape="http://www.inkscape.org/namespaces/inkscape"
   xmlns:sodipodi="http://sodipodi.sourceforge.net/DTD/sodipodi-0.dtd"
   xmlns="http://www.w3.org/2000/svg"
   xmlns:svg="http://www.w3.org/2000/svg"><defs
   id="defs9" /><sodipodi:namedview
   id="namedview7"
   pagecolor="#ffffff"
   bordercolor="#000000"
   borderopacity="0.25"
   inkscape:showpageshadow="2"
   inkscape:pageopacity="0.0"
   inkscape:pagecheckerboard="0"
   inkscape:deskcolor="#d1d1d1"
   showgrid="false"
   inkscape:zoom="0.4609375"
   inkscape:cx="-198.50847"
   inkscape:cy="195.25424"
   inkscape:window-width="1920"
   inkscape:window-height="1080"
   inkscape:window-x="0"
   inkscape:window-y="0"
   inkscape:window-maximized="0"
   inkscape:current-layer="Capa_1" />
<g
   id="g4"
   transform="matrix(0.9766315,0,0,1,8.5209531e-5,-0.28113731)">
	<path
   d="M 20.317,4.37 C 18.787,3.668 17.147,3.151 15.432,2.855 15.401,2.849 15.37,2.864 15.353,2.892 15.142,3.267 14.908,3.757 14.745,4.141 12.9,3.865 11.065,3.865 9.258,4.141 9.095,3.748 8.852,3.267 8.641,2.892 8.624,2.864 8.593,2.85 8.562,2.855 6.848,3.15 5.208,3.667 3.677,4.37 3.664,4.375 3.652,4.385 3.645,4.397 0.534,9.045 -0.319,13.579 0.099,18.057 0.101,18.079 0.113,18.1 0.13,18.113 2.183,19.621 4.171,20.536 6.123,21.142 6.154,21.152 6.187,21.14 6.207,21.114 6.669,20.484 7.08,19.819 7.433,19.12 7.454,19.079 7.434,19.03 7.391,19.014 6.738,18.766 6.117,18.464 5.519,18.122 5.472,18.094 5.468,18.027 5.511,17.994 5.637,17.9 5.763,17.802 5.883,17.703 c 0.022,-0.018 0.052,-0.022 0.078,-0.01 3.928,1.793 8.18,1.793 12.061,0 0.026,-0.012 0.056,-0.009 0.079,0.01 0.12,0.099 0.246,0.198 0.373,0.292 0.044,0.032 0.041,0.1 -0.007,0.128 -0.598,0.349 -1.219,0.645 -1.873,0.891 -0.043,0.016 -0.061,0.066 -0.041,0.107 0.36,0.698 0.772,1.363 1.225,1.993 0.019,0.027 0.053,0.038 0.084,0.029 1.961,-0.607 3.95,-1.522 6.002,-3.029 0.018,-0.013 0.029,-0.033 0.031,-0.055 0.5,-5.177 -0.838,-9.674 -3.548,-13.66 C 20.342,4.385 20.33,4.375 20.317,4.37 Z M 8.02,15.331 c -1.183,0 -2.157,-1.086 -2.157,-2.419 0,-1.333 0.955,-2.419 2.157,-2.419 1.211,0 2.176,1.095 2.157,2.419 0,1.334 -0.956,2.419 -2.157,2.419 z m 7.975,0 c -1.182,0 -2.157,-1.086 -2.157,-2.419 0,-1.333 0.955,-2.419 2.157,-2.419 1.211,0 2.176,1.095 2.157,2.419 0,1.334 -0.946,2.419 -2.157,2.419 z"
   id="path2" />
</g>















</svg>
